<svg xmlns="http://www.w3.org/2000/svg" width="61" height="57" viewBox="0 0 61 57" fill="none"><path d="M5.27781 55.3891H11.389C13.7479 55.3891 15.6668 53.4702 15.6668 51.1113V23C15.6668 20.6411 13.7479 18.7222 11.389 18.7222H5.27781C2.9189 18.7222 1 20.6411 1 23V51.1113C1 53.4702 2.9189 55.3891 5.27781 55.3891Z" fill="#91EC8F" stroke="#4B3E52" stroke-width="2"></path><path d="M32.2432 1C29.7987 1 28.5765 2.22223 28.5765 8.33338C28.5765 14.1414 22.9518 18.8152 19.334 21.223V51.505C23.2476 53.3163 31.0821 56.0004 43.2433 56.0004H47.1544C51.9211 56.0004 55.9789 52.5781 56.7856 47.8848L59.5234 31.9958C60.55 26.0068 55.9545 20.5557 49.8922 20.5557H38.3543C38.3543 20.5557 40.1877 16.889 40.1877 10.7778C40.1877 3.44446 34.6876 1 32.2432 1Z" fill="#91EC8F" stroke="#4B3E52" stroke-width="2"></path></svg>