<svg xmlns="http://www.w3.org/2000/svg" width="201" height="75" viewBox="0 0 201 75" fill="none"><path d="M88.1104 36.0341C86.2841 36.0341 84.5992 35.6999 83.0558 35.0313C81.5382 34.337 80.2906 33.3599 79.3131 32.0999L82.7857 27.9341C84.252 29.9141 85.924 30.9041 87.8018 30.9041C90.3483 30.9041 91.6216 29.4127 91.6216 26.4299V13.5856H82.1298V8.57129H97.8338V26.0827C97.8338 29.3999 97.0106 31.8941 95.3644 33.5656C93.7181 35.2113 91.3001 36.0341 88.1104 36.0341Z" fill="white"></path><path d="M113.654 8.57129H119.905V35.5713H113.654V8.57129Z" fill="white"></path><path d="M160.732 8.57129V35.5713H155.601L142.134 19.1784V35.5713H135.961V8.57129H141.131L154.559 24.9641V8.57129H160.732Z" fill="white"></path><path d="M193.785 35.5713L187.264 26.1984L180.859 35.5713H173.682L183.675 21.8399L174.184 8.57129H181.283L187.495 17.327L193.592 8.57129H200.344L190.929 21.6084L201 35.5713H193.785Z" fill="white"></path><g opacity="0.1"><path d="M88.1104 39.3945C86.2841 39.3945 84.5992 39.7288 83.0558 40.3974C81.5382 41.0917 80.2906 42.0688 79.3131 43.3288L82.7857 47.4945C84.252 45.5145 85.924 44.5245 87.8018 44.5245C90.3483 44.5245 91.6216 46.016 91.6216 48.9988V61.8431H82.1298V66.8574H97.8338V49.346C97.8338 46.0288 97.0106 43.5345 95.3644 41.8631C93.7181 40.2174 91.3001 39.3945 88.1104 39.3945Z" fill="url(#paint0_linear_19:56)"></path><path d="M113.654 66.8574H119.905V39.8574H113.654V66.8574Z" fill="url(#paint1_linear_19:56)"></path><path d="M160.732 66.8574V39.8574H155.601L142.134 56.2502V39.8574H135.961V66.8574H141.131L154.559 50.4645V66.8574H160.732Z" fill="url(#paint2_linear_19:56)"></path><path d="M193.785 39.8574L187.264 49.2302L180.859 39.8574H173.682L183.675 53.5888L174.184 66.8574H181.283L187.495 58.1017L193.592 66.8574H200.344L190.929 53.8202L201 39.8574H193.785Z" fill="url(#paint3_linear_19:56)"></path></g><path fill-rule="evenodd" clip-rule="evenodd" d="M28.4091 0.235481C25.0185 0.979748 23.7871 1.66462 21.371 4.15058C18.0698 7.54637 17.4913 7.66924 11.4363 6.26274C4.53539 4.65988 2.42388 4.87629 0.855688 7.34703C0.14339 8.46956 -0.0058876 9.22385 0.000174512 11.676C0.00585774 14.1412 0.180515 14.9924 1.02959 16.6873C3.28356 21.1878 7.39178 24.8679 13.9108 28.2251C20.4284 31.5816 22.6876 34.2412 23.5022 39.5164C23.8175 41.5588 22.8403 45.8117 21.2626 49.2639C18.4779 55.3588 17.7599 60.4762 18.9102 66.0376C19.6755 69.7378 21.3342 73.5059 22.5717 74.3552C24.8848 75.9425 29.0206 74.5612 33.7214 70.6316C38.0308 67.0291 39.6911 64.1663 40.7391 58.5318C41.4118 55.7498 42.0783 52.4131 42.8165 50.3861C44.589 44.3416 51.7643 38.7631 60.2352 38.78C61.4152 38.7823 62.382 38.8335 63.2209 38.9666C64.8154 38.9479 64.3373 37.0656 63.7819 36.9208C61.72 36.3833 60.3962 33.7954 59.321 30.9802C58.8663 29.7894 58.1551 26.6289 57.741 23.9574C56.2725 14.4827 54.7308 10.6289 50.9666 7.02C48.341 4.50286 43.1006 1.74851 38.9663 0.712478C36.2346 0.0279755 30.5286 -0.22964 28.4091 0.235481ZM53.6286 16.2233C51.8108 10.1856 47.1573 5.90119 39.8142 3.5032C34.5497 1.78452 28.5864 1.97347 25.1394 3.96832C24.5316 4.31986 23.5988 5.22411 23.0657 5.97766C20.514 9.58503 17.4977 10.2833 11.1075 8.74537C6.44002 7.62247 3.91743 7.50406 3.1805 8.37416C2.90316 8.70157 2.6065 10.0383 2.52163 11.3442C2.30605 14.6605 3.54992 17.0916 7.34745 20.778C9.72228 23.0832 11.0427 23.9848 14.9342 25.9589C22.7077 29.9015 25.5467 33.4714 25.863 39.702C26.0407 43.1995 25.4413 46.102 23.8068 49.6619C21.8541 53.9133 21.3422 55.812 21.1372 59.5615C20.9156 63.6162 21.2805 66.211 22.5334 69.4917C23.5613 72.1829 24.2304 72.8678 25.5273 72.5548C27.3448 72.1165 29.5583 70.8451 31.9342 68.8747C36.2974 65.2566 37.3507 63.1901 38.8348 55.3376C40.619 45.8993 43.3848 42.015 50.8223 38.5034C52.6117 37.6586 55.0305 36.8601 56.5695 36.6058L59.227 36.1674L58.3044 34.6867C57.1053 32.7616 56.0478 29.4026 55.4632 25.6605L54.9949 22.6641L52.9285 24.5149C49.4761 27.606 38.2407 32.2779 34.2587 32.2779C32.0259 32.2779 29.653 31.0641 27.8434 28.9972C24.6828 25.3861 24.2929 22.7068 26.3722 18.8845C27.7184 16.4097 31.5213 12.473 35.1627 9.78363C38.4408 7.363 39.1607 7.07717 39.8048 7.94022C40.5064 8.88048 40.2329 9.22199 36.7445 11.7584C33.2304 14.3134 29.4192 18.1807 28.4565 20.1685C26.8633 23.4581 27.3267 25.1244 30.6764 28.1498C32.1847 29.5117 32.5757 29.6795 34.2431 29.6795C38.0562 29.6795 48.4971 25.3011 51.4978 22.444C53.6324 20.4112 54.3015 18.458 53.6286 16.2233Z" fill="url(#paint4_linear_19:56)"></path><path d="M22.1481 9.83114C21.4044 10.709 22.2542 12.2328 23.4878 12.2328C24.6101 12.2328 25.3076 10.9522 24.7518 9.91281C24.3232 9.11212 22.7979 9.06386 22.1481 9.83114Z" fill="url(#paint5_linear_19:56)"></path><defs><linearGradient id="paint0_linear_19:56" x1="140.157" y1="39.3945" x2="140.157" y2="66.8574" gradientUnits="userSpaceOnUse"><stop stop-color="#6C6C6C"></stop><stop offset="1" stop-color="#6C6C6C" stop-opacity="0"></stop></linearGradient><linearGradient id="paint1_linear_19:56" x1="140.157" y1="39.3945" x2="140.157" y2="66.8574" gradientUnits="userSpaceOnUse"><stop stop-color="#6C6C6C"></stop><stop offset="1" stop-color="#6C6C6C" stop-opacity="0"></stop></linearGradient><linearGradient id="paint2_linear_19:56" x1="140.157" y1="39.3945" x2="140.157" y2="66.8574" gradientUnits="userSpaceOnUse"><stop stop-color="#6C6C6C"></stop><stop offset="1" stop-color="#6C6C6C" stop-opacity="0"></stop></linearGradient><linearGradient id="paint3_linear_19:56" x1="140.157" y1="39.3945" x2="140.157" y2="66.8574" gradientUnits="userSpaceOnUse"><stop stop-color="#6C6C6C"></stop><stop offset="1" stop-color="#6C6C6C" stop-opacity="0"></stop></linearGradient><linearGradient id="paint4_linear_19:56" x1="-3.2154" y1="-3.84427e-07" x2="70.7128" y2="75.0255" gradientUnits="userSpaceOnUse"><stop stop-color="white"></stop><stop offset="1" stop-color="white"></stop></linearGradient><linearGradient id="paint5_linear_19:56" x1="-3.2154" y1="-3.84427e-07" x2="70.7128" y2="75.0255" gradientUnits="userSpaceOnUse"><stop stop-color="white"></stop><stop offset="1" stop-color="white"></stop></linearGradient></defs></svg>