<svg xmlns="http://www.w3.org/2000/svg" width="50" height="50" viewBox="0 0 50 50" fill="none"><path d="M25.25 16.5832L13.0695 3.236C12.9302 3.08345 12.7586 2.96389 12.5672 2.88603C12.3759 2.80818 12.1696 2.77399 11.9633 2.78597C11.7571 2.79794 11.5561 2.85578 11.3751 2.95526C11.194 3.05474 11.0374 3.19335 10.9167 3.361L8.69447 6.47211C8.07583 7.34777 7.75769 8.40037 7.78773 9.4721C7.81778 10.5438 8.19441 11.5769 8.86114 12.4166L21.25 27.9443L17.75 32.4721C15.9649 31.8673 14.0183 31.9503 12.2911 32.7048C10.5639 33.4592 9.18034 34.8309 8.411 36.5516C7.64166 38.2722 7.54193 40.218 8.13131 42.0083C8.72069 43.7985 9.95678 45.3045 11.5978 46.2317C13.2388 47.1588 15.1667 47.4403 17.0043 47.0212C18.8419 46.6021 20.457 45.5125 21.5338 43.9656C22.6106 42.4186 23.0714 40.5256 22.8263 38.6568C22.5812 36.788 21.6477 35.0779 20.2084 33.861L22.9861 30.2221L27.7778 36.111C26.8798 37.7797 26.6366 39.7234 27.0958 41.5619C27.5549 43.4004 28.6834 45.0015 30.2605 46.0521C31.8376 47.1026 33.7498 47.5271 35.6233 47.2425C37.4968 46.9579 39.1967 45.9846 40.3906 44.513C41.5845 43.0415 42.1865 41.1775 42.0789 39.2855C41.9713 37.3936 41.1618 35.6099 39.8088 34.2832C38.4557 32.9565 36.6564 32.1822 34.7628 32.1119C32.8691 32.0415 31.0173 32.68 29.5695 33.9027L11.0278 10.6943C10.7359 10.3249 10.5714 9.87098 10.5589 9.40033C10.5463 8.92968 10.6865 8.46762 10.9584 8.08323L12.1806 6.37489L25.2639 20.6943L38.3195 6.37489L39.5417 8.08322C39.8136 8.46762 39.9537 8.92967 39.9412 9.40033C39.9287 9.87098 39.7642 10.3249 39.4723 10.6943L28.5695 24.3193L30.4584 26.3888L41.5695 12.4166C42.2395 11.5757 42.618 10.5399 42.6481 9.46523C42.6782 8.39053 42.3581 7.33518 41.7362 6.45822L39.5139 3.34711C39.3932 3.17946 39.2366 3.04084 39.0556 2.94137C38.8745 2.84189 38.6735 2.78406 38.4673 2.77208C38.2611 2.76011 38.0547 2.79429 37.8634 2.87214C37.672 2.95 37.5005 3.06956 37.3612 3.22211L25.25 16.5832ZM20.1945 39.6527C20.1972 40.6037 19.9177 41.5342 19.3914 42.3263C18.865 43.1184 18.1154 43.7365 17.2376 44.1023C16.3597 44.4682 15.393 44.5653 14.4599 44.3815C13.5268 44.1976 12.6693 43.741 11.9958 43.0695C11.3224 42.398 10.8633 41.5418 10.6767 40.6092C10.4902 39.6766 10.5845 38.7097 10.9479 37.8308C11.3112 36.9519 11.9271 36.2005 12.7177 35.6719C13.5082 35.1432 14.4379 34.861 15.3889 34.861C16.661 34.861 17.8812 35.3654 18.7821 36.2636C19.6829 37.1618 20.1908 38.3806 20.1945 39.6527ZM39.25 39.6527C39.2528 40.6037 38.9733 41.5342 38.4469 42.3263C37.9206 43.1184 37.171 43.7365 36.2931 44.1023C35.4153 44.4682 34.4486 44.5653 33.5155 44.3815C32.5824 44.1976 31.7248 43.741 31.0514 43.0695C30.3779 42.398 29.9189 41.5418 29.7323 40.6092C29.5458 39.6766 29.6401 38.7097 30.0034 37.8308C30.3667 36.9519 30.9827 36.2005 31.7732 35.6719C32.5638 35.1432 33.4934 34.861 34.4445 34.861C35.7166 34.861 36.9368 35.3654 37.8376 36.2636C38.7384 37.1618 39.2464 38.3806 39.25 39.6527Z" fill="currentColor"></path></svg>