<svg xmlns="http://www.w3.org/2000/svg" width="139" height="202" viewBox="0 0 139 202" fill="none"><path d="M126.543 5.818a5.818 5.818 0 1011.636 0 5.818 5.818 0 00-11.636 0zM94.908 5.818a5.818 5.818 0 1011.636 0 5.818 5.818 0 00-11.636 0zM63.272 5.818a5.818 5.818 0 1011.636 0 5.818 5.818 0 00-11.636 0zM31.636 5.818a5.818 5.818 0 1011.636 0 5.818 5.818 0 00-11.636 0zM0 5.818a5.818 5.818 0 1011.636 0A5.818 5.818 0 000 5.818zM126.543 37.454a5.818 5.818 0 1011.636 0 5.818 5.818 0 00-11.636 0zM94.908 37.454a5.818 5.818 0 1011.636 0 5.818 5.818 0 00-11.636 0zM63.272 37.454a5.818 5.818 0 1011.636 0 5.818 5.818 0 00-11.636 0zM31.636 37.454a5.818 5.818 0 1011.635 0 5.818 5.818 0 00-11.635 0zM0 37.454a5.818 5.818 0 1011.636 0 5.818 5.818 0 00-11.636 0zM126.543 69.09a5.818 5.818 0 1011.636-.001 5.818 5.818 0 00-11.636 0zM94.908 69.09a5.818 5.818 0 1011.636 0 5.818 5.818 0 00-11.636 0zM63.272 69.09a5.818 5.818 0 1011.636 0 5.818 5.818 0 00-11.636 0zM31.636 69.09a5.818 5.818 0 1011.636 0 5.818 5.818 0 00-11.636 0zM0 69.09a5.818 5.818 0 1011.636 0A5.818 5.818 0 000 69.09zM126.543 100.725a5.818 5.818 0 1011.636 0 5.818 5.818 0 00-11.636 0zM94.908 100.725a5.818 5.818 0 1011.636 0 5.818 5.818 0 00-11.636 0zM63.272 100.725a5.818 5.818 0 1011.636 0 5.818 5.818 0 00-11.636 0zM31.636 100.725a5.818 5.818 0 1011.636 0 5.818 5.818 0 00-11.636 0zM0 100.725a5.818 5.818 0 1011.636 0 5.818 5.818 0 00-11.636 0zM126.543 132.361a5.818 5.818 0 1011.636 0 5.818 5.818 0 00-11.636 0zM94.908 132.361a5.818 5.818 0 1011.636 0 5.818 5.818 0 00-11.636 0zM63.272 132.361a5.818 5.818 0 1011.636 0 5.818 5.818 0 00-11.636 0zM31.636 132.361a5.818 5.818 0 1011.636 0 5.818 5.818 0 00-11.636 0zM0 132.361a5.818 5.818 0 1011.636 0 5.818 5.818 0 00-11.636 0zM126.543 163.997a5.818 5.818 0 1011.636 0 5.818 5.818 0 00-11.636 0zM94.908 163.997a5.818 5.818 0 1011.636 0 5.818 5.818 0 00-11.636 0zM63.272 163.997a5.818 5.818 0 1011.636 0 5.818 5.818 0 00-11.636 0zM31.636 163.997a5.818 5.818 0 1011.636 0 5.818 5.818 0 00-11.636 0zM0 163.997a5.818 5.818 0 1011.636 0 5.818 5.818 0 00-11.636 0zM126.543 195.632a5.818 5.818 0 1011.636 0 5.818 5.818 0 00-11.636 0zM94.908 195.632a5.818 5.818 0 1011.636 0 5.818 5.818 0 00-11.636 0zM63.272 195.632a5.818 5.818 0 1011.636 0 5.818 5.818 0 00-11.636 0zM31.636 195.632a5.818 5.818 0 1011.636 0 5.818 5.818 0 00-11.636 0zM0 195.632a5.818 5.818 0 1011.636 0 5.818 5.818 0 00-11.636 0z" fill="currentColor"></path></svg>