<svg xmlns="http://www.w3.org/2000/svg" width="50" height="50" viewBox="0 0 50 50" fill="none"><path d="M20.8334 31.2499L32.4709 19.6145C31.9863 19.1301 31.6287 18.5336 31.4297 17.878C31.2307 17.2223 31.1964 16.5277 31.33 15.8556C31.4635 15.1836 31.7607 14.5549 32.1953 14.0251C32.6299 13.4954 33.1884 13.081 33.8214 12.8186C34.4543 12.5563 35.1422 12.4541 35.8241 12.5211C36.506 12.5881 37.1609 12.8222 37.7307 13.2027C38.3005 13.5833 38.7677 14.0984 39.0909 14.7026C39.414 15.3068 39.5832 15.9814 39.5834 16.6666C40.2687 16.6661 40.9436 16.8347 41.5483 17.1574C42.1529 17.4801 42.6686 17.947 43.0497 18.5166C43.4307 19.0863 43.6653 19.7412 43.7328 20.4232C43.8002 21.1053 43.6984 21.7934 43.4363 22.4267C43.1742 23.0599 42.7599 23.6188 42.2302 24.0537C41.7005 24.4885 41.0717 24.786 40.3995 24.9198C39.7273 25.0535 39.0325 25.0194 38.3767 24.8204C37.7208 24.6215 37.1242 24.2638 36.6396 23.7791L29.1667 31.2499" stroke="#FF7844" stroke-width="2.5" stroke-linecap="round" stroke-linejoin="round"></path><path d="M25 27.0832L17.5292 19.6145C18.0138 19.1301 18.3714 18.5336 18.5704 17.878C18.7694 17.2223 18.8037 16.5277 18.6701 15.8556C18.5366 15.1836 18.2394 14.5549 17.8048 14.0251C17.3702 13.4954 16.8117 13.081 16.1787 12.8186C15.5458 12.5563 14.8579 12.4541 14.1759 12.5211C13.494 12.5881 12.8392 12.8222 12.2694 13.2027C11.6996 13.5833 11.2324 14.0984 10.9092 14.7026C10.5861 15.3068 10.4169 15.9814 10.4167 16.6666C9.73135 16.6661 9.05644 16.8347 8.45181 17.1574C7.84718 17.4801 7.33148 17.947 6.95043 18.5166C6.56938 19.0863 6.33474 19.7412 6.26729 20.4232C6.19985 21.1053 6.30169 21.7934 6.56379 22.4267C6.82589 23.0599 7.24016 23.6188 7.76987 24.0537C8.29959 24.4885 8.92841 24.786 9.60059 24.9198C10.2728 25.0535 10.9676 25.0194 11.6234 24.8204C12.2793 24.6215 12.8759 24.2638 13.3605 23.7791L20.8334 31.2499" stroke="#FF7844" stroke-width="2.5" stroke-linecap="round" stroke-linejoin="round"></path><path d="M6.25 41.6667H43.75C43.3854 38.1854 43.6542 34.6979 39.5833 31.25H10.4167C7.63958 33.3333 6.25 36.8062 6.25 41.6667Z" stroke="#FF7844" stroke-width="2.5" stroke-linecap="round" stroke-linejoin="round"></path></svg>