<svg xmlns="http://www.w3.org/2000/svg" width="50" height="50" viewBox="0 0 50 50" fill="none"><path d="M10.2688 39.752C14.2167 43.7 19.4458 45.8729 25 45.8729C30.5542 45.8729 35.7854 43.7 39.7313 39.752C47.8542 31.6291 47.8542 18.4125 39.7313 10.2875C35.7854 6.34163 30.5521 4.16663 25 4.16663C19.4479 4.16663 14.2146 6.34163 10.2688 10.2875C2.14585 18.4104 2.14585 31.6291 10.2688 39.752ZM36.7854 36.8062C34.6022 38.9955 31.8509 40.5317 28.8417 41.2416C28.8229 37.9041 30.0625 34.6875 32.3646 32.3854C34.7875 29.9625 38.0563 28.577 41.275 28.5291C40.6114 31.6646 39.0517 34.54 36.7854 36.8062ZM41.6292 24.3791C37.2042 24.3354 32.7042 26.1562 29.4188 29.4395C26.2271 32.6312 24.5708 37.1062 24.7042 41.6916C20.3828 41.6257 16.2585 39.8724 13.2125 36.8062C10.1628 33.7549 8.42033 29.6364 8.35418 25.3229C8.5146 25.327 8.67501 25.352 8.83543 25.352C13.2417 25.352 17.5021 23.677 20.5792 20.602C23.8708 17.3104 25.6979 12.8125 25.6417 8.36663C29.8393 8.51738 33.8228 10.2578 36.7854 13.2354C39.7517 16.2034 41.4826 20.1855 41.6292 24.3791ZM13.2146 13.2354C15.4788 10.9606 18.3538 9.39104 21.4917 8.71663C21.4542 11.9562 20.0646 15.225 17.6354 17.6562C15.3354 19.9541 12.1313 21.1895 8.80626 21.1791C9.50436 18.1712 11.0316 15.4192 13.2146 13.2354Z" fill="currentColor"></path></svg>